<?xml version="1.0" encoding="iso-8859-1"?>
<!-- Generator: Adobe Illustrator 19.0.0, SVG Export Plug-In . SVG Version: 6.00 Build 0)  -->
<svg version="1.1" id="Capa_1" xmlns="http://www.w3.org/2000/svg" xmlns:xlink="http://www.w3.org/1999/xlink" x="0px" y="0px"
	 viewBox="0 0 512 512" style="enable-background:new 0 0 512 512;" xml:space="preserve">
<path style="fill:#5A5A5A;" d="M237.674,212h-150V0h150V212z"/>
<path style="fill:#FF3980;" d="M228.079,512H97.269c-21.46,0-40.005-15.19-44.121-36.108l-28.796-143.99
	C21.258,316.433,33.091,302,48.867,302h227.614c15.776,0,27.608,14.433,24.515,29.903l-28.81,144.047
	C268.084,496.81,249.539,512,228.079,512z"/>
<path style="fill:#CE0963;" d="M276.481,302H161.674v210h66.405c21.46,0,40.005-15.19,44.106-36.05l28.809-144.047
	C304.089,316.433,292.257,302,276.481,302z"/>
<rect x="162.67" style="fill:#444444;" width="75" height="212"/>
<path style="fill:#EDE9E8;" d="M300.984,332H24.363L5.174,235.95c-2.607-13.462,0.864-27.144,9.521-37.617
	C23.25,187.947,35.848,182,49.266,182h226.816c13.418,0,26.016,5.947,34.57,16.333c8.657,10.474,12.129,24.155,9.536,37.529
	l-0.015,0.088L300.984,332z"/>
<path style="fill:#D2C5C2;" d="M276.082,182H162.674v150h138.311l19.189-96.05l0.015-0.088c2.593-13.374-0.879-27.056-9.536-37.529
	C302.098,187.947,289.5,182,276.082,182z"/>
<polygon style="fill:#FF3980;" points="447.674,135 481.893,0 383.455,0 417.674,135 432.586,149.206 "/>
<polygon style="fill:#CE0963;" points="432.674,149.123 447.674,135 481.893,0 432.674,0 "/>
<rect x="417.67" y="135" style="fill:#DFD7D5;" width="30" height="182"/>
<rect x="432.67" y="135" style="fill:#D2C5C2;" width="15" height="182"/>
<path style="fill:#5A5A5A;" d="M507.674,512h-150V302h150V512z"/>
<rect x="432.67" y="302" style="fill:#444444;" width="75" height="210"/>
<g>
</g>
<g>
</g>
<g>
</g>
<g>
</g>
<g>
</g>
<g>
</g>
<g>
</g>
<g>
</g>
<g>
</g>
<g>
</g>
<g>
</g>
<g>
</g>
<g>
</g>
<g>
</g>
<g>
</g>
</svg>
